<?xml version="1.0" standalone="no"?>
<!DOCTYPE svg PUBLIC "-//W3C//DTD SVG 20010904//EN"
 "http://www.w3.org/TR/2001/REC-SVG-20010904/DTD/svg10.dtd">
<svg version="1.0" xmlns="http://www.w3.org/2000/svg"
 width="400.000000pt" height="400.000000pt" viewBox="0 0 400.000000 400.000000"
 preserveAspectRatio="xMidYMid meet">
<metadata>
Created by potrace 1.14, written by Peter Selinger 2001-2017
</metadata>
<g transform="translate(0.000000,400.000000) scale(0.100000,-0.100000)"
fill="#000000" stroke="none">
<path d="M1308 3626 c-21 -15 -25 -85 -6 -104 7 -7 29 -12 49 -12 28 0 41 6
53 25 21 33 20 50 -6 80 -24 28 -63 32 -90 11z"/>
<path d="M1506 3607 c-33 -30 -36 -38 -36 -86 l0 -53 -25 16 c-14 9 -45 16
-73 16 -41 0 -54 -5 -85 -34 -20 -18 -37 -41 -37 -49 0 -9 -4 -19 -10 -22 -28
-17 10 -120 55 -149 40 -26 125 -24 164 3 52 37 80 128 49 159 -6 6 -9 15 -5
19 4 4 13 1 19 -5 31 -31 158 -3 158 34 0 8 5 14 10 14 6 0 10 22 10 50 0 43
-4 54 -35 85 -30 29 -43 35 -79 35 -35 0 -50 -6 -80 -33z"/>
<path d="M2073 3623 c-17 -12 -23 -25 -23 -55 l0 -40 -42 36 c-38 33 -47 36
-105 36 -65 0 -91 -9 -127 -46 -36 -35 -46 -62 -46 -125 l0 -61 -25 16 c-29
19 -48 20 -78 4 -49 -28 -57 -40 -57 -88 0 -63 28 -90 94 -90 61 0 96 35 96
94 l0 26 30 -29 c18 -17 46 -31 70 -35 46 -7 120 2 120 15 0 5 5 9 11 9 20 0
68 64 75 98 4 19 4 53 0 78 -5 41 4 58 19 34 11 -17 60 -11 83 10 14 14 22 33
22 55 0 63 -65 95 -117 58z"/>
<path d="M2092 3400 c-29 -27 -30 -90 -3 -114 29 -26 89 -18 114 16 51 68 -48
156 -111 98z"/>
<path d="M1780 3230 c0 -5 -5 -10 -10 -10 -6 0 -21 -10 -33 -23 -69 -72 -63
-161 16 -221 69 -53 191 -24 219 52 7 17 14 32 18 32 3 0 16 -12 29 -25 32
-34 108 -36 139 -2 44 47 34 114 -22 151 -42 27 -72 20 -116 -25 -30 -31 -40
-37 -40 -24 0 24 -47 85 -66 85 -7 0 -14 5 -14 10 0 6 -27 10 -60 10 -33 0
-60 -4 -60 -10z"/>
<path d="M1428 3173 c-21 -14 -38 -32 -38 -39 0 -8 -4 -14 -10 -14 -5 0 -10
-25 -10 -57 0 -54 -1 -55 -18 -40 -22 20 -100 22 -122 4 -23 -19 -40 -54 -40
-82 0 -33 63 -95 96 -95 58 0 93 37 94 98 l0 42 29 -32 c27 -31 34 -33 94 -33
63 0 66 1 101 39 31 35 36 46 36 90 0 37 -6 57 -25 82 -51 66 -124 81 -187 37z"/>
<path d="M1787 2906 c-20 -18 -37 -41 -37 -49 0 -9 -4 -19 -10 -22 -5 -3 -10
-24 -10 -45 0 -21 5 -42 10 -45 6 -3 10 -10 10 -15 0 -6 -16 -1 -35 10 -20 11
-51 20 -71 20 -39 0 -114 -42 -114 -65 0 -8 -4 -15 -10 -15 -5 0 -10 -25 -10
-56 0 -88 53 -144 135 -144 80 0 135 57 135 139 0 28 2 51 5 51 3 0 17 -7 30
-16 34 -22 106 -21 146 2 99 58 107 189 16 258 -28 21 -45 26 -93 26 -54 0
-64 -3 -97 -34z"/>
<path d="M1396 2894 c-27 -27 -34 -62 -16 -80 6 -6 -6 -14 -36 -23 -118 -35
-128 -185 -14 -232 11 -5 9 -9 -12 -17 -35 -14 -88 -70 -88 -93 0 -10 -4 -21
-10 -24 -14 -8 -13 -58 2 -92 36 -83 80 -114 164 -114 43 0 62 5 94 28 22 15
40 33 40 40 0 6 5 13 12 15 8 3 12 29 12 75 0 62 -3 75 -29 108 -15 21 -45 45
-66 53 l-38 15 34 34 c31 31 35 41 35 88 0 43 -5 57 -24 76 l-24 23 32 15 c25
13 32 23 34 54 6 73 -51 101 -102 51z"/>
<path d="M2075 2741 c-16 -10 -38 -33 -48 -52 -17 -32 -17 -37 -2 -71 9 -23
28 -44 46 -54 79 -41 171 38 140 120 -13 33 -27 47 -64 64 -34 15 -35 15 -72
-7z"/>
<path d="M1948 2547 c-36 -17 -65 -45 -83 -80 -40 -81 14 -179 107 -193 21 -4
38 -10 38 -15 0 -5 -4 -9 -10 -9 -5 0 -10 -17 -10 -38 0 -47 24 -72 67 -72 39
0 63 28 63 73 0 31 -5 41 -31 56 -30 19 -31 19 -10 30 48 26 68 119 38 177
-19 38 -44 58 -86 73 -40 13 -48 13 -83 -2z"/>
<path d="M1755 2508 c-11 -7 -26 -17 -32 -24 -18 -17 -16 -69 2 -84 13 -11 8
-16 -32 -35 -51 -24 -83 -55 -83 -80 0 -8 -4 -15 -10 -15 -16 0 -12 -73 6
-109 8 -17 31 -43 50 -58 46 -34 127 -37 172 -5 29 21 72 97 72 127 0 35 -45
108 -78 128 -23 14 -30 23 -21 26 26 8 39 30 39 65 0 27 -6 39 -29 55 -34 24
-30 24 -56 9z"/>
<path d="M1304 2181 c-46 -21 -83 -66 -103 -124 -10 -32 -10 -46 0 -83 14 -45
67 -114 88 -114 20 0 12 -20 -12 -29 -13 -5 -30 -23 -36 -40 -12 -27 -11 -34
9 -61 16 -22 29 -30 53 -30 l32 -1 -26 -14 c-42 -23 -59 -58 -59 -124 0 -53 3
-63 31 -90 17 -17 39 -31 49 -31 10 0 22 -4 25 -10 3 -5 17 -10 30 -10 13 0
27 5 30 10 3 6 13 10 21 10 35 0 84 74 84 125 0 51 -49 125 -84 125 -8 0 -18
5 -21 10 -3 6 -17 10 -31 10 -24 0 -32 14 -14 25 25 16 4 84 -30 98 -8 3 8 6
37 6 l52 1 3 -46 c2 -37 8 -48 30 -62 23 -14 30 -14 52 -3 14 8 32 28 40 45 9
17 16 25 16 19 0 -21 33 -54 74 -74 42 -20 116 -26 116 -9 0 6 8 10 17 10 24
0 83 68 83 96 0 32 18 40 29 12 12 -31 48 -60 94 -76 30 -11 44 -11 75 0 78
27 118 86 110 162 -7 55 -32 90 -84 116 -51 25 -77 25 -129 0 -43 -21 -85 -81
-85 -123 -1 -15 -5 -11 -14 15 -15 43 -30 59 -73 82 -60 30 -131 18 -180 -31
-39 -39 -53 -67 -53 -109 0 -32 -1 -34 -16 -20 -8 9 -24 16 -35 16 -25 0 -24
5 9 39 40 42 57 109 41 158 -28 84 -100 143 -174 143 -16 0 -49 -9 -71 -19z"/>
<path d="M1923 1684 c-29 -22 -33 -32 -33 -71 l0 -46 -20 26 c-47 59 -126 73
-194 33 -43 -25 -55 -42 -77 -108 -10 -30 -10 -41 -1 -50 7 -7 12 -19 12 -27
0 -21 49 -81 66 -81 7 0 14 -4 14 -10 0 -6 28 -10 65 -10 37 0 65 4 65 10 0 6
7 10 14 10 8 0 27 16 42 36 22 28 28 47 28 90 1 29 1 54 2 54 0 0 18 -9 40
-19 28 -14 44 -16 57 -9 10 5 23 7 30 4 8 -3 6 -5 -3 -5 -8 -1 -20 -13 -27
-27 -15 -33 0 -70 37 -89 21 -11 30 -11 53 2 54 28 53 97 -3 121 -29 13 -29
14 -15 42 26 50 13 99 -35 137 -26 21 -82 15 -117 -13z"/>
<path d="M2615 1465 c-21 -21 -26 -33 -23 -59 l4 -34 -58 1 c-32 0 -68 -5 -81
-12 -32 -17 -67 -76 -67 -112 0 -30 -1 -31 -18 -16 -10 10 -33 17 -51 17 l-32
0 21 22 c26 28 26 58 -1 92 -16 21 -29 26 -63 26 -53 0 -76 -22 -76 -73 0 -44
31 -77 72 -77 32 0 32 0 17 -34 -9 -20 -9 -29 1 -41 11 -13 6 -15 -42 -15 -30
0 -59 -5 -66 -12 -7 -7 -5 5 4 29 11 27 14 54 10 76 -7 39 -64 107 -89 107 -9
0 -19 5 -22 10 -10 17 -61 11 -103 -11 -46 -25 -82 -84 -82 -134 0 -40 31 -97
65 -119 28 -18 126 -22 156 -6 18 10 19 7 19 -38 0 -38 6 -55 23 -74 l24 -25
-54 -1 c-30 0 -61 -6 -70 -14 -15 -12 -15 -11 -5 9 7 12 12 28 12 37 0 24 -45
66 -72 66 -25 0 -58 -27 -58 -48 0 -18 -20 -14 -27 6 -9 24 -24 38 -67 61 -46
26 -76 26 -122 0 -63 -35 -84 -69 -84 -135 0 -46 0 -47 -17 -27 -29 32 -58 43
-117 43 -76 0 -109 -19 -145 -84 -22 -38 -28 -110 -11 -121 6 -3 10 -13 10
-21 0 -17 34 -53 72 -77 35 -22 111 -22 146 0 63 39 92 86 92 150 0 27 4 43 8
37 13 -21 71 -44 107 -44 74 0 145 65 145 133 l0 36 25 -24 c13 -14 33 -25 45
-25 23 0 26 -10 8 -28 -17 -17 -16 -123 0 -153 18 -35 75 -70 121 -76 56 -8
122 31 150 90 12 24 21 52 21 63 -1 31 -36 100 -61 118 l-23 16 24 0 c36 0 89
36 101 68 10 27 8 62 -6 95 -6 14 -2 17 19 17 32 0 66 28 67 55 0 19 1 19 12
2 19 -30 41 -51 64 -64 27 -15 109 -17 118 -3 3 6 12 10 20 10 10 0 12 -11 8
-40 -15 -110 101 -195 197 -145 47 24 80 76 80 124 0 46 -31 103 -67 122 -29
15 -136 16 -141 0 -2 -6 -11 -11 -20 -10 -11 0 -12 2 -4 6 27 11 10 134 -22
155 -6 4 5 8 25 8 51 0 74 30 70 92 -1 24 -41 58 -66 58 -12 0 -34 -11 -50
-25z"/>
<path d="M2858 1457 c-66 -60 -72 -145 -15 -207 33 -37 62 -50 112 -50 25 0
55 6 68 13 32 17 67 59 67 79 0 9 5 20 10 23 6 3 10 17 10 30 0 13 -4 27 -10
30 -5 3 -10 14 -10 23 0 20 -35 62 -67 80 -13 6 -47 12 -76 12 -46 0 -58 -4
-89 -33z"/>
<path d="M1485 1420 c-3 -5 -14 -10 -23 -10 -23 0 -72 -50 -72 -74 0 -16 -4
-14 -17 12 -8 18 -30 39 -48 47 -27 14 -35 14 -59 1 -59 -30 -72 -82 -32 -128
29 -35 82 -38 114 -8 21 20 21 20 32 1 5 -11 10 -26 10 -33 0 -16 51 -68 66
-68 5 0 15 -4 22 -9 10 -6 6 -16 -17 -40 -17 -18 -31 -39 -31 -47 0 -16 19
-51 38 -72 19 -21 88 -19 112 3 35 31 20 135 -19 135 -20 0 -12 20 12 29 32
13 67 46 67 64 0 9 5 19 10 22 6 3 10 21 10 40 0 19 -4 37 -10 40 -5 3 -10 13
-10 21 0 45 -134 108 -155 74z"/>
<path d="M1742 1275 c-7 -8 -13 -31 -14 -51 -2 -62 59 -94 110 -58 26 18 31
86 8 110 -19 18 -87 18 -104 -1z"/>
<path d="M3122 1207 c-28 -30 -28 -74 0 -98 l21 -19 -39 0 c-44 -1 -70 -17
-90 -56 -21 -40 -17 -69 15 -103 24 -26 37 -31 73 -31 35 0 49 5 66 25 29 34
30 103 2 133 l-21 22 23 0 c13 0 35 11 51 24 31 27 35 64 11 101 -22 34 -81
35 -112 2z"/>
<path d="M1263 1133 c-12 -2 -33 -16 -47 -30 -20 -20 -26 -36 -26 -70 0 -137
171 -163 217 -33 9 22 9 38 3 44 -6 6 -10 17 -10 26 0 39 -79 75 -137 63z"/>
<path d="M2425 1000 c-3 -5 -14 -10 -23 -10 -20 0 -60 -34 -89 -75 -47 -68
-41 -171 14 -235 46 -54 84 -72 152 -73 71 0 131 29 171 85 24 33 30 37 30 20
0 -12 13 -36 29 -54 26 -29 35 -33 80 -33 41 0 55 5 77 26 36 36 38 118 4 154
-40 43 -115 44 -159 4 l-21 -20 0 26 c0 33 -35 107 -63 133 -43 39 -96 62
-147 62 -27 0 -52 -4 -55 -10z"/>
<path d="M3020 881 c0 -5 -8 -12 -18 -15 -25 -8 -62 -77 -62 -116 0 -42 34
-102 70 -123 43 -26 116 -22 156 8 60 46 79 113 48 174 -27 54 -73 81 -137 81
-32 0 -57 -4 -57 -9z"/>
<path d="M1697 753 c-17 -4 -47 -51 -47 -73 0 -7 9 -25 21 -41 16 -23 28 -29
57 -29 53 1 74 21 76 71 1 61 -40 89 -107 72z"/>
</g>
</svg>
